<svg xmlns="http://www.w3.org/2000/svg" width="1024" height="1024" viewBox="-51.5 -51.5 1127.0 1127.0">
  <g fill="none" stroke="black" stroke-width="45" stroke-linecap="round" stroke-linejoin="round">
    <path d="M 57.456,218.873 C 49.361,218.013 39.724,215.601 4.482,201.58" data-line="nan"  stroke-width="45.0"/>
    <path d="M 112.786,833.432 C 76.025,833.327 58.824,831.261 50.137,828.44 C 41.319,824.05 28.666,814.397 21.147,806.132 C 15.164,797.345 10.755,788.492 7.601,779.871 C 5.546,771.384 4.511,762.904 4.128,728.394" data-line="nan"  stroke-width="45.0"/>
    <path d="M 345.538,818.319 C 369.054,813.617 381.051,809.749 394.25,802.516 C 404.458,793.731 413.078,782.344 418.422,771.431 C 421.688,756.786 421.941,749.759 421.086,741.388 C 418.601,731.97 412.153,720.636 404.484,712.23 C 394.418,705.233 380.086,699.169 345.176,691.442 L 324.405,685.665" data-line="nan"  stroke-width="45.0"/>
    <path d="M 759.969,373.186 C 744.536,373.834 730.243,376.862 716.356,382.51 C 703.867,390.655 693.52,400.969 685.568,413.057 Q 680.871,424.563 678.02,439.4" data-line="nan"  stroke-width="45.0"/>
    <path d="M 677.831,519.377 C 679.937,534.797 683.055,544.9 686.284,552.219 C 690.411,558.74 695.949,565.355 708.4,575.638 C 723.173,583.178 739.185,587.509 752.751,588.867 L 780.773,588.939" data-line="nan"  stroke-width="45.0"/>
    <path d="M 4.004,222.515 C 4.589,170.039 5.759,157.042 8.123,147.079 C 11.462,137.887 16.687,127.549 22.499,118.977 C 30.308,110.143 40.694,101.378 47.499,97.071 C 58.07,92.189 69.268,88.869 81.334,86.762 L 108.064,85.977" data-line="nan"  stroke-width="45.0"/>
    <path d="M 842.253,86.015 C 852.946,86.302 862.093,87.638 873.405,90.881 C 885.075,95.88 900.724,106.278 907.671,112.681 C 915.115,121.458 923.759,136.26 926.875,144.266 C 930.196,156.894 931.841,170.451 932.014,202.197" data-line="nan"  stroke-width="45.0"/>
    <path d="M 551.2520952584002,832.8495486740693 A 250.31963372667272,250.31963372667272 0 1,0 138.9943061930372,829.4801222167417" data-line="0.0"  stroke-width="45.0"/>
    <path d="M 550.9903673257978,832.6606462808852 A 252.6093315487824,252.6093315487824 0 0,1 138.23231059014986,829.9813536219431" data-line="1.0"  stroke-width="45.0"/>
    <path d="M 982.397,375.69 L 759.969,373.186" data-line="2.0"  stroke-width="45.0"/>
    <path d="M 982.397,375.69 L 986.761,377.264" data-line="3.0"  stroke-width="45.0"/>
    <path d="M 986.761,377.264 L 991.223,379.331" data-line="4.0"  stroke-width="45.0"/>
    <path d="M 991.223,379.331 L 995.711,381.973" data-line="5.0"  stroke-width="45.0"/>
    <path d="M 995.711,381.973 L 1000.069,385.13" data-line="6.0"  stroke-width="45.0"/>
    <path d="M 1000.069,385.13 L 1004.239,388.898" data-line="7.0"  stroke-width="45.0"/>
    <path d="M 1004.239,388.898 L 1007.953,393.033" data-line="8.0"  stroke-width="45.0"/>
    <path d="M 1007.953,393.033 L 1011.211,397.497" data-line="9.0"  stroke-width="45.0"/>
    <path d="M 1011.211,397.497 L 1013.827,401.947" data-line="10.0"  stroke-width="45.0"/>
    <path d="M 1013.827,401.947 L 1015.881,406.368" data-line="11.0"  stroke-width="45.0"/>
    <path d="M 1015.881,406.368 L 1017.404,410.718" data-line="12.0"  stroke-width="45.0"/>
    <path d="M 1017.404,410.718 L 1016.022,554.238" data-line="13.0"  stroke-width="45.0"/>
    <path d="M 1016.022,554.238 L 1014.079,558.944" data-line="14.0"  stroke-width="45.0"/>
    <path d="M 1014.079,558.944 L 1011.506,563.617" data-line="15.0"  stroke-width="45.0"/>
    <path d="M 1011.506,563.617 L 1008.442,568.023" data-line="16.0"  stroke-width="45.0"/>
    <path d="M 1008.442,568.023 L 1004.801,572.162" data-line="17.0"  stroke-width="45.0"/>
    <path d="M 1004.801,572.162 L 1000.898,575.755" data-line="18.0"  stroke-width="45.0"/>
    <path d="M 1000.898,575.755 L 996.483,579.059" data-line="19.0"  stroke-width="45.0"/>
    <path d="M 996.483,579.059 L 991.975,581.803" data-line="20.0"  stroke-width="45.0"/>
    <path d="M 991.975,581.803 L 987.319,584.106" data-line="21.0"  stroke-width="45.0"/>
    <path d="M 987.319,584.106 L 982.814,585.821" data-line="22.0"  stroke-width="45.0"/>
    <path d="M 932.031,588.883 L 932.015,745.479" data-line="26.0"  stroke-width="45.0"/>
    <path d="M 112.786,833.432 L 137.47,830.512" data-line="29.0"  stroke-width="45.0"/>
    <path d="M 345.638,849.73 L 345.944,667.956" data-line="34.0"  stroke-width="45.0"/>
    <path d="M 284.2601936773115,662.123911337361 A 99.3561903068735,99.3561903068735 0 0,0 343.02579785437393,689.9459251067535" data-line="35.0"  stroke-width="45.0"/>
    <path d="M 284.566,661.812 L 281.368,657.546" data-line="36.0"  stroke-width="45.0"/>
    <path d="M 281.368,657.546 L 278.72,653.12" data-line="37.0"  stroke-width="45.0"/>
    <path d="M 278.72,653.12 L 276.7,648.686" data-line="38.0"  stroke-width="45.0"/>
    <path d="M 276.7,648.686 L 275.203,644.341" data-line="39.0"  stroke-width="45.0"/>
    <path d="M 275.203,644.341 C 271.8169177668029,631.279232637658 272.1776249378451,619.2180968961811 277.705,606.3" data-line="40.0"  stroke-width="45.0"/>
    <path d="M 277.7050000216041,606.3000000099266 A 56.03305048198615,56.03305048198615 0 0,1 282.53200001953223,597.8270000135054" data-line="41.0"  stroke-width="45.0"/>
    <path d="M 282.532,597.827 L 285.715,593.749" data-line="42.0"  stroke-width="45.0"/>
    <path d="M 285.715,593.749 L 289.2,590.048" data-line="43.0"  stroke-width="45.0"/>
    <path d="M 288.91377389854637,589.6906949263303 A 102.18911651196062,102.18911651196062 0 0,1 346.08140250846867,567.4775430808322" data-line="44.0"  stroke-width="45.0"/>
    <path d="M 345.944,667.956 L 345.902,530.43" data-line="45.0"  stroke-width="45.0"/>
    <path d="M 342.987,690.301 Q 344.6839999946271,690.7954999956885 350.809,692.044" data-line="46.0"  stroke-width="45.0"/>
    <path d="M 272.8502523639655,767.4732469489246 A 74.75848489347965,74.75848489347965 0 0,0 345.48438233828875,816.6357896180571" data-line="47.0"  stroke-width="45.0"/>
    <path d="M 406.841438233629,597.2644397194479 A 95.70546976872434,95.70546976872434 0 0,0 351.1310865910192,566.3659982246278" data-line="48.0"  stroke-width="45.0"/>
    <path d="M 932.003,218.976 L 57.456,218.873" data-line="48.0"  stroke-width="45.0"/>
    <path d="M 406.456,597.606 L 409.281,601.934" data-line="49.0"  stroke-width="45.0"/>
    <path d="M 409.281,601.934 C 412.3121722105404,607.3696715999672 413.2028278420906,609.5953273213094 414.365,612.454" data-line="50.0"  stroke-width="45.0"/>
    <path d="M 780.773,588.939 L 982.814,585.821" data-line="52.0"  stroke-width="45.0"/>
    <path d="M 4.128,728.394 L 4.004,222.515" data-line="53.0"  stroke-width="45.0"/>
    <path d="M 678.02,439.4 L 677.831,519.377" data-line="53.0"  stroke-width="45.0"/>
    <path d="M 108.064,85.977 L 842.253,86.015" data-line="55.0"  stroke-width="45.0"/>
    <path d="M 932.014,202.197 L 931.986,373.209" data-line="57.0"  stroke-width="45.0"/>
    <path d="M 931.8953879227041,745.4832779631298 A 85.85816471755368,85.85816471755368 0 0,1 823.9957115906451,831.5181660948052" data-line="58.0"  stroke-width="45.0"/>
    <path d="M 823.486,833.432 L 551.364,832.928" data-line="59.0"  stroke-width="45.0"/>
  </g>
</svg>