<svg xmlns="http://www.w3.org/2000/svg" width="1024" height="1024" viewBox="-51.5 -51.5 1127.0 1127.0">
  <g fill="none" stroke="black" stroke-width="45" stroke-linecap="round" stroke-linejoin="round">
    <path d="M 804.38,423.83 Q 801.65,403.25 801.43,297.48" data-line="nan"  stroke-width="45.0"/>
    <path d="M 55.69,424.68 Q 58.52,400.09 58.45,310.62" data-line="nan"  stroke-width="45.0"/>
    <path d="M 362.1,100.62 C 360.54,92.37 358.81,88.59 353.71,81.6 C 347.88,77.4 341.45,75.31 336.47,74.68 L 300.96,74.56" data-line="nan"  stroke-width="45.0"/>
    <path d="M 177.46,74.78 C 169.79,76.77 164.18,80.04 159.07,85.71 C 155.5,92.3 154.16,100.76 154.3,133.83" data-line="nan"  stroke-width="45.0"/>
    <path d="M 154.5,220.03 L 154.12,313.53" data-line="nan"  stroke-width="45.0"/>
    <path d="M 488.8,140.16 C 480.39,138.78 470.3,134.06 464.86,129.74 C 461.32,125.67 456.6,116.86 454.42,108.32 C 453.83,101.83 453.86,42.65 454.49,34.43 C 457.32,23.45 461.12,16.48 464.93,11.76 C 470.97,6.88 476.03,4.14 482.17,1.79 L 492.61,0.2" data-line="nan"  stroke-width="45.0"/>
    <path d="M 695.86,0.24 C 703.28,1.12 711.33,3.63 717.65,7.26 C 723.32,12.49 726.54,17.01 730.12,24.87 C 731.62,30.82 732.25,40.57 732.12,103.5 C 731.52,109.74 730.0,115.31 724.57,125.76 C 717.64,132.59 713.03,135.59 707.5,137.86 L 696.94,140.02" data-line="nan"  stroke-width="45.0"/>
    <path d="M 609.42,140.24 L 580.43,140.24" data-line="nan"  stroke-width="45.0"/>
    <path d="M 539.09,826.36 C 552.14,872.89 558.86,890.12 565.79,904.69 C 573.92,919.09 585.58,936.3 597.42,950.81 C 611.26,964.97 625.4,977.07 642.65,989.37 C 657.05,997.83 674.47,1006.22 691.66,1012.75 C 711.83,1018.44 731.91,1022.1 749.19,1023.71 C 772.21,1023.77 792.39,1022.24 812.58,1018.72 C 830.01,1013.97 847.23,1007.66 867.37,998.11 C 884.73,987.78 899.2,977.44 913.7,965.2 C 927.39,951.47 939.52,937.05 951.63,919.73 C 961.53,902.34 969.4,885.22 976.56,864.88 L 981.22,846.55" data-line="nan"  stroke-width="45.0"/>
    <path d="M 0.2,840.15 C 1.4,859.69 4.06,871.42 6.92,879.29 C 10.93,887.3 16.22,895.25 26.48,905.8 C 38.51,913.6 46.59,917.04 54.42,919.29 Q 66.14,920.97 97.63,921.5" data-line="nan"  stroke-width="45.0"/>
    <path d="M 801.43,297.48 C 800.76,281.67 796.72,267.33 791.44,257.85 C 786.37,251.88 780.49,246.58 770.31,240.08 C 756.87,235.23 742.85,233.23 721.3,233.21" data-line="nan"  stroke-width="45.0"/>
    <path d="M 58.45,310.62 C 59.23,287.32 62.28,273.14 64.6,267.59 C 70.38,258.38 75.04,252.84 82.48,245.92 C 88.53,241.84 96.48,238.01 111.44,234.06 Q 121.55,233.15 154.28,233.0" data-line="nan"  stroke-width="45.0"/>
    <path d="M 498.44,670.17 L 0.0,670.17" data-line="0.0"  stroke-width="45.0"/>
    <path d="M 4.26,648.56 L 0.2,840.15" data-line="1.0"  stroke-width="45.0"/>
    <path d="M 803.25,415.3 L 56.77,415.32" data-line="2.0"  stroke-width="45.0"/>
    <path d="M 127.67,313.46 L 383.94,313.52" data-line="7.0"  stroke-width="45.0"/>
    <path d="M 595.3,140.24 L 595.28,233.29" data-line="10.0"  stroke-width="45.0"/>
    <circle cx="259.1400802009379" cy="541.1410542948382" r="36.094375486040256" data-line="18.0"  stroke-width="45.0"/>
    <path d="M 824.36,510.43 L 804.38,423.83" data-line="19.0"  stroke-width="45.0"/>
    <path d="M 267.19,576.54 L 272.42,575.29" data-line="19.0"  stroke-width="45.0"/>
    <circle cx="429.58707506556453" cy="541.0701887000014" r="36.062885117055295" data-line="20.0"  stroke-width="45.0"/>
    <path d="M 458.63,562.15 L 461.76,558.22" data-line="21.0"  stroke-width="45.0"/>
    <path d="M 4.26,648.56 L 55.69,424.68" data-line="21.0"  stroke-width="45.0"/>
    <path d="M 577.2187873291695,567.9149510066476 A 35.94884398544073,35.94884398544073 0 1,1 635.6805586081828,531.321446508288" data-line="23.0"  stroke-width="45.0"/>
    <path d="M 361.8,313.52 L 362.1,100.62" data-line="23.0"  stroke-width="45.0"/>
    <path d="M 473.6282508931762,765.5845163275937 A 70.93899998141043,70.93899998141043 0 0,0 359.3730855362829,824.3902477290376" data-line="24.0"  stroke-width="45.0"/>
    <path d="M 300.96,74.56 L 177.46,74.78" data-line="25.0"  stroke-width="45.0"/>
    <path d="M 465.91,825.53 L 358.05,824.44" data-line="25.0"  stroke-width="45.0"/>
    <path d="M 154.3,133.83 L 154.5,220.03" data-line="27.0"  stroke-width="45.0"/>
    <path d="M 580.43,140.24 L 488.8,140.16" data-line="29.0"  stroke-width="45.0"/>
    <path d="M 512.0,874.09 L 539.09,826.36" data-line="29.0"  stroke-width="45.0"/>
    <path d="M 492.61,0.2 L 695.86,0.24" data-line="31.0"  stroke-width="45.0"/>
    <path d="M 539.09,826.36 L 587.03,854.61" data-line="31.0"  stroke-width="45.0"/>
    <path d="M 696.94,140.02 L 609.42,140.24" data-line="33.0"  stroke-width="45.0"/>
    <path d="M 536.326615020616,773.4177774903588 A 225.110876345868,225.110876345868 0 0,1 985.7419972938061,794.4460633800026" data-line="34.0"  stroke-width="45.0"/>
    <path d="M 943.73,765.58 L 987.23,794.46" data-line="35.0"  stroke-width="45.0"/>
    <path d="M 1024.0,751.15 L 989.23,795.81" data-line="36.0"  stroke-width="45.0"/>
    <path d="M 97.63,921.5 L 469.16,921.59" data-line="38.0"  stroke-width="45.0"/>
    <path d="M 721.3,233.21 L 362.08,233.19" data-line="40.0"  stroke-width="45.0"/>
  </g>
</svg>