<svg xmlns="http://www.w3.org/2000/svg" width="1024" height="1024" viewBox="-51.5 -51.5 1127.0 1127.0">
  <g fill="none" stroke="black" stroke-width="45" stroke-linecap="round" stroke-linejoin="round">
    <path d="M 891.4,1001.713 C 883.729,1007.754 876.76,1011.896 860.094,1017.993 Q 846.912,1019.855 818.712,1020.0" data-line="nan"  stroke-width="45.0"/>
    <path d="M 619.747,531.137 C 614.685,555.516 606.846,578.308 599.646,595.673 C 593.004,608.491 582.579,625.796 555.128,665.769" data-line="nan"  stroke-width="45.0"/>
    <path d="M 513.66,150.07 C 591.398,176.671 620.39,189.054 636.161,197.59 C 651.867,207.702 666.796,219.123 680.022,231.131 C 694.175,246.277 701.827,255.984 719.445,281.213 C 731.862,304.046 740.179,323.358 747.264,344.835 C 752.31,366.379 755.373,387.768 756.494,403.953 C 756.559,434.08 753.382,459.14 747.811,484.968 C 742.601,502.28 735.842,519.651 706.614,573.445 C 688.207,593.588 674.672,606.852 659.453,619.625 C 642.859,631.3 626.533,640.915 609.912,648.996 Q 594.411,655.433 569.564,663.626" data-line="nan"  stroke-width="45.0"/>
    <path d="M 470.708,665.22 C 440.276,618.449 431.548,602.635 421.125,577.389 Q 411.414,550.452 408.052,531.475" data-line="nan"  stroke-width="45.0"/>
    <path d="M 511.272,321.549 C 480.942,318.751 461.596,315.883 433.761,310.706 C 403.87,303.887 367.875,288.761 318.519,262.863" data-line="nan"  stroke-width="45.0"/>
    <path d="M 393.519,396.043 C 394.777,368.954 398.35,338.916 403.87,303.887 C 411.567,279.339 422.356,250.474 434.273,225.044 Q 444.326,208.048 472.707,166.101" data-line="nan"  stroke-width="45.0"/>
    <path d="M 269.996,406.225 C 271.853,383.395 276.336,358.093 282.14,336.723 C 290.078,315.211 300.319,293.853 318.519,262.863 C 340.706,238.298 353.573,225.483 370.571,211.098 C 387.68,199.071 409.053,186.898 421.979,180.847 Q 437.251,174.916 513.66,150.07" data-line="nan"  stroke-width="45.0"/>
    <path d="M 183.364,1019.993 C 168.264,1018.927 159.602,1016.763 151.133,1013.598 C 142.261,1008.843 136.047,1004.415 129.725,998.677 C 124.117,992.215 116.083,978.504 111.336,962.128 Q 109.694,949.616 109.491,921.558" data-line="nan"  stroke-width="45.0"/>
    <path d="M 109.498,75.858 C 109.742,67.301 110.993,58.919 113.851,49.05 C 116.749,42.181 120.304,35.904 125.911,28.435 C 136.696,18.059 149.551,10.269 163.887,5.531 Q 174.049,4.146 201.966,4.029" data-line="nan"  stroke-width="45.0"/>
    <path d="M 843.661,4.0 C 858.828,5.28 869.174,8.131 876.062,11.025 C 882.742,14.768 890.325,20.607 900.549,31.391 C 907.723,43.422 912.431,58.253 914.43,72.881 L 914.508,101.027" data-line="nan"  stroke-width="45.0"/>
    <path d="M 914.291,951.129 C 912.811,963.964 908.203,978.14 901.008,990.779 Q 894.548,998.972 891.4,1001.713" data-line="nan"  stroke-width="45.0"/>
    <path d="M 619.747,531.137 L 625.361,533.627" data-line="3.0"  stroke-width="45.0"/>
    <path d="M 625.361,533.627 L 619.402,522.374" data-line="4.0"  stroke-width="45.0"/>
    <path d="M 706.614,573.445 L 619.678,531.619" data-line="5.0"  stroke-width="45.0"/>
    <path d="M 326.4400509073208,579.8678002651536 A 236.851712420831,236.851712420831 0 0,0 479.1875487914348,667.3722172286181" data-line="9.0"  stroke-width="45.0"/>
    <path d="M 403.645,530.416 L 320.485,572.77" data-line="10.0"  stroke-width="45.0"/>
    <path d="M 602.654,525.169 L 513.128,511.912" data-line="11.0"  stroke-width="45.0"/>
    <path d="M 555.128,665.769 L 479.245,666.963" data-line="12.0"  stroke-width="45.0"/>
    <path d="M 513.61,669.242 L 512.774,496.584" data-line="13.0"  stroke-width="45.0"/>
    <path d="M 511.126,511.724 L 405.574,529.466" data-line="14.0"  stroke-width="45.0"/>
    <path d="M 408.052,531.475 L 405.574,529.466" data-line="16.0"  stroke-width="45.0"/>
    <path d="M 756.61,416.352 L 637.267,417.228" data-line="18.0"  stroke-width="45.0"/>
    <path d="M 634.926,419.63 L 619.402,522.374" data-line="19.0"  stroke-width="45.0"/>
    <path d="M 627.856,416.422 L 269.949,416.504" data-line="20.0"  stroke-width="45.0"/>
    <path d="M 633.466,421.13 L 627.856,416.422" data-line="21.0"  stroke-width="45.0"/>
    <path d="M 633.466,421.13 L 637.644,416.84" data-line="22.0"  stroke-width="45.0"/>
    <path d="M 637.644,416.84 L 633.555,410.964" data-line="23.0"  stroke-width="45.0"/>
    <path d="M 512.774,496.584 L 513.66,150.07" data-line="24.0"  stroke-width="45.0"/>
    <path d="M 403.645,530.416 L 393.519,396.043" data-line="26.0"  stroke-width="45.0"/>
    <path d="M 320.9392111892713,572.431738543555 A 257.88481916592286,257.88481916592286 0 0,1 270.1721493881481,406.23331995996193" data-line="27.0"  stroke-width="45.0"/>
    <path d="M 818.712,1020.0 L 183.364,1019.993" data-line="27.0"  stroke-width="45.0"/>
    <path d="M 633.3801411158246,410.9577676783886 A 389.85447651946544,389.85447651946544 0 0,0 558.8716877698041,167.5079672667426" data-line="29.0"  stroke-width="45.0"/>
    <path d="M 610.937,307.264 L 513.392,321.43" data-line="30.0"  stroke-width="45.0"/>
    <path d="M 708.181,265.22 L 621.474,303.589" data-line="34.0"  stroke-width="45.0"/>
    <path d="M 914.508,101.027 L 914.291,951.129" data-line="37.0"  stroke-width="45.0"/>
    <path d="M 558.453,167.813 L 472.707,166.101" data-line="38.0"  stroke-width="45.0"/>
    <path d="M 364.192,839.017 L 659.995,838.875" data-line="68.0"  stroke-width="45.0"/>
    <path d="M 109.491,921.558 L 109.498,75.858" data-line="70.0"  stroke-width="45.0"/>
    <path d="M 201.966,4.029 L 843.661,4.0" data-line="72.0"  stroke-width="45.0"/>
  </g>
</svg>