<svg xmlns="http://www.w3.org/2000/svg" width="1024" height="1024" viewBox="-47.5 -47.5 1119.0 1119.0" fill="none">
<path d="M484.624 236.335L470.693 221.273C455.047 204.356 429.872 200.319 409.725 211.503C316.255 263.386 179.707 339.166 122.842 370.675C106.838 379.543 96.913 396.401 96.913 414.698V544.766C96.913 556.4 100.97 567.67 108.385 576.635L140.062 614.931L156.196 633.809M484.624 236.335L543.917 183.011C560.015 168.534 583.602 166.062 602.352 176.887L911.07 355.126C926.54 364.058 936.07 380.543 936.07 398.407C936.07 475.191 936.07 589.523 936.07 594.967C936.07 598.627 921.169 609.844 904.601 621.103C885.851 633.846 860.861 631.119 844.412 615.518L596.886 380.752C576.6 361.511 543.994 362.349 521.313 378.7C501.167 393.223 474.836 409.139 444.039 421.726C403.647 438.234 373.531 420.76 354.916 399.26C341.127 383.334 346.926 360.173 362.589 346.087L484.624 236.335ZM708.087 486.22L836.222 618.303C855.37 638.041 852.847 670.103 830.847 686.603V686.603C813.115 699.902 788.392 698.54 772.227 683.373L643.685 562.766L755.879 672.552C776.427 692.659 775.827 725.91 754.568 745.263L736.171 762.011C716.21 780.182 685.43 779.229 666.631 759.858L552.234 641.98L663.822 760.976C686.015 784.643 680.14 822.85 651.863 838.757L629.021 851.605C614.564 859.737 596.424 856.947 585.079 844.846V844.846" stroke="black" stroke-linecap="round"  stroke-width="45.0"/>
<rect x="269.935" y="508.172" width="108.82" height="195.123" rx="50" transform="rotate(44.1781 269.935 508.172)" stroke="black" stroke-linecap="round"  stroke-width="45.0"/>
<rect x="378.226" y="555.68" width="137.51" height="246.566" rx="50" transform="rotate(44.1781 378.226 555.68)" stroke="black" stroke-linecap="round"  stroke-width="45.0"/>
<rect x="467.807" y="660.016" width="119.521" height="214.31" rx="50" transform="rotate(44.1781 467.807 660.016)" stroke="black" stroke-linecap="round"  stroke-width="45.0"/>
<rect x="538.86" y="760.711" width="95.1205" height="170.559" rx="47.5602" transform="rotate(44.1781 538.86 760.711)" stroke="black" stroke-linecap="round"  stroke-width="45.0"/>
<path d="M1 25L268.866 291.812M977.922 998.076L741.576 762.66" stroke="black" stroke-linecap="round"  stroke-width="45.0"/>
<path d="M1023 54.0352L789.878 285.887M82.1467 989.761L279.014 793.967" stroke="black" stroke-linecap="round"  stroke-width="45.0"/>
</svg>