<svg xmlns="http://www.w3.org/2000/svg" width="1024" height="1024" viewBox="-51.5 -51.5 1127.0 1127.0">
  <g fill="none" stroke="black" stroke-width="45" stroke-linecap="round" stroke-linejoin="round">
    <path d="M 513.425,594.849 C 491.584,598.177 475.236,603.441 467.045,607.585 C 459.062,612.842 447.564,623.267 441.44,631.145 C 436.784,639.322 433.869,646.194 431.346,655.685 C 430.37,663.647 430.544,671.663 431.866,679.785 C 434.316,687.744 438.271,695.973 444.2,704.413 C 451.765,711.981 463.785,720.126 472.107,724.132 C 484.566,728.67 528.453,740.59 545.455,746.224 C 560.125,752.356 570.864,758.988 581.523,768.249 C 590.814,780.717 596.547,794.979 598.515,809.865 C 598.211,816.297 596.489,825.682 590.862,840.545 C 582.041,853.445 573.379,861.949 560.645,870.441 C 546.235,876.505 532.207,879.716 513.397,881.941" data-line="nan"  stroke-width="45.0"/>
    <path d="M 907.481,939.085 C 906.19,959.864 904.299,968.188 901.367,976.467 C 897.138,984.796 891.098,993.373 878.993,1005.114 C 866.208,1012.972 857.893,1016.286 849.594,1018.423 Q 837.189,1019.822 808.275,1019.991" data-line="nan"  stroke-width="45.0"/>
    <path d="M 196.572,1019.999 C 175.962,1018.904 167.738,1017.103 159.476,1014.167 C 151.287,1009.974 143.161,1004.181 131.685,992.333 C 123.989,979.867 121.092,972.978 118.557,963.485 Q 117.118,951.394 116.898,918.42" data-line="nan"  stroke-width="45.0"/>
    <path d="M 116.832,79.395 C 118.182,59.023 120.058,50.986 123.097,42.827 C 127.428,34.784 133.524,26.739 145.106,16.327 C 156.97,9.802 165.129,7.035 173.227,5.4 Q 189.162,4.082 217.926,4.0" data-line="nan"  stroke-width="45.0"/>
    <path d="M 906.844,197.378 L 714.257,4.51" data-line="0.0"  stroke-width="45.0"/>
    <path d="M 906.879,201.99 L 785.864,201.818" data-line="1.0"  stroke-width="45.0"/>
    <path d="M 906.879,201.99 L 907.481,939.085" data-line="2.0"  stroke-width="45.0"/>
    <circle cx="335.68880233345106" cy="210.75315741021953" r="66.2475110360929" data-line="6.0"  stroke-width="45.0"/>
    <path d="M 324.135,471.196 L 581.305,161.723" data-line="8.0"  stroke-width="45.0"/>
    <circle cx="572.8763667768407" cy="412.54166439616966" r="66.14837446291217" data-line="9.0"  stroke-width="45.0"/>
    <path d="M 513.275,750.782 L 513.21,919.982" data-line="12.0"  stroke-width="45.0"/>
    <path d="M 513.275,750.782 L 513.377,556.137" data-line="13.0"  stroke-width="45.0"/>
    <path d="M 510.083,880.248 L 513.331,881.051" data-line="15.0"  stroke-width="45.0"/>
    <path d="M 513.331,881.051 L 513.424,892.074" data-line="16.0"  stroke-width="45.0"/>
    <path d="M 426.04274039130524,826.9844639858647 A 78.87974354749996,78.87974354749996 0 0,0 509.98911174891816,879.4671612946756" data-line="17.0"  stroke-width="45.0"/>
    <path d="M 593.1610851492501,656.357211053506 A 80.64467789498936,80.64467789498936 0 0,0 515.2342309429285,595.7024877078768" data-line="18.0"  stroke-width="45.0"/>
    <path d="M 785.8667251808075,201.88849523009185 A 71.27253600409182,71.27253600409182 0 0,1 714.0332275980303,113.12825496003435" data-line="19.0"  stroke-width="45.0"/>
    <path d="M 712.516,112.743 L 712.527,4.456" data-line="20.0"  stroke-width="45.0"/>
    <path d="M 808.275,1019.991 L 196.572,1019.999" data-line="22.0"  stroke-width="45.0"/>
    <path d="M 116.898,918.42 L 116.832,79.395" data-line="24.0"  stroke-width="45.0"/>
    <path d="M 217.926,4.0 L 712.527,4.456" data-line="26.0"  stroke-width="45.0"/>
  </g>
</svg>