<svg xmlns="http://www.w3.org/2000/svg" width="1024" height="1024" viewBox="-51.5 -51.5 1127.0 1127.0">
  <g fill="none" stroke="black" stroke-width="45" stroke-linecap="round" stroke-linejoin="round">
    <path d="M 508.63,439.818 C 513.873,465.527 513.32,475.931 511.778,481.278 C 509.24,486.493 505.761,491.286 501.455,495.479 C 491.542,501.112 486.488,502.322 481.531,502.592 C 471.61,500.28 461.904,494.41 458.063,490.315 C 455.057,485.553 452.241,478.735 446.67,445.642" data-line="nan"  stroke-width="45.0"/>
    <path d="M 378.873,393.893 C 360.017,402.95 350.416,405.589 342.672,405.138 L 317.851,399.501" data-line="nan"  stroke-width="45.0"/>
    <path d="M 963.596,919.88 C 977.828,934.532 988.558,949.168 991.124,954.12 C 994.438,964.002 995.397,974.027 993.838,984.393 C 991.937,989.577 985.919,999.403 977.269,1008.411 C 972.367,1012.181 962.172,1017.59 952.122,1019.858 C 942.282,1019.692 927.566,1016.111 917.724,1011.3 Q 903.757,1000.124 861.863,957.367" data-line="nan"  stroke-width="45.0"/>
    <path d="M 458.387,6.276 C 429.883,4.076 401.071,4.511 377.706,6.405 C 349.938,10.536 322.281,16.265 299.94,22.579 C 275.5,31.409 249.257,43.045 226.539,55.297 C 203.367,70.054 179.106,88.396 157.034,107.288 C 137.842,126.014 117.898,148.357 101.02,169.96 L 88.315,188.804" data-line="nan"  stroke-width="45.0"/>
    <path d="M 524.104,783.183 C 558.123,772.627 596.536,756.491 617.222,745.813 Q 648.829,727.719 661.949,717.511" data-line="nan"  stroke-width="45.0"/>
    <path d="M 712.879,670.251 L 963.596,919.88" data-line="0.0"  stroke-width="45.0"/>
    <path d="M 661.1448800624491,716.4336945396241 A 394.9943964328704,394.9943964328704 0 0,0 458.3828965615944,6.324196755070375" data-line="1.0"  stroke-width="45.0"/>
    <path d="M 508.63,439.818 L 446.67,445.642" data-line="3.0"  stroke-width="45.0"/>
    <path d="M 371.283,348.998 L 335.337,340.484" data-line="5.0"  stroke-width="45.0"/>
    <path d="M 378.873,393.893 L 371.283,348.998" data-line="6.0"  stroke-width="45.0"/>
    <path d="M 335.1574523095536,340.242990930529 A 50.62207738148539,50.62207738148539 0 0,0 318.2778110847779,399.33347898946477" data-line="8.0"  stroke-width="45.0"/>
    <path d="M 602.173,212.996 L 679.118,210.445" data-line="9.0"  stroke-width="45.0"/>
    <path d="M 679.118,210.445 L 508.63,439.818" data-line="10.0"  stroke-width="45.0"/>
    <path d="M 446.67,445.642 L 378.873,393.893" data-line="11.0"  stroke-width="45.0"/>
    <path d="M 173.164,548.039 L 317.851,399.501" data-line="12.0"  stroke-width="45.0"/>
    <path d="M 679.118,210.445 L 686.612,299.254" data-line="13.0"  stroke-width="45.0"/>
    <path d="M 861.863,957.367 L 648.829,727.719" data-line="15.0"  stroke-width="45.0"/>
    <path d="M 87.98009525745834,188.59652149314687 A 397.73570091482367,397.73570091482367 0 0,0 524.1870813550413,783.5094485520949" data-line="17.0"  stroke-width="45.0"/>
  </g>
</svg>