<svg xmlns="http://www.w3.org/2000/svg" width="1024" height="1024" viewBox="-51.5 -51.5 1127.0 1127.0">
  <g fill="none" stroke="black" stroke-width="45" stroke-linecap="round" stroke-linejoin="round">
    <path d="M 325.84,738.481 C 375.934,786.236 429.835,833.185 467.986,863.355 C 535.023,911.369 578.731,939.112 630.021,967.268 Q 672.519,986.697 715.601,1002.346" data-line="nan"  stroke-width="45.0"/>
    <path d="M 715.601,1002.346 C 745.67,1010.788 771.781,1016.151 800.693,1019.535 C 824.706,1019.751 846.238,1017.024 865.238,1011.826 C 882.343,1004.363 899.157,993.487 909.372,984.809 C 920.4,974.0 996.848,894.978 1005.62,884.631 C 1010.562,875.401 1013.158,866.777 1014.217,856.329 C 1013.377,848.326 1010.72,839.322 1007.413,832.67 C 1002.068,825.255 991.24,813.963 977.624,801.469" data-line="nan"  stroke-width="45.0"/>
    <path d="M 855.979,694.041 C 848.209,687.758 838.881,681.878 828.829,677.237 C 818.523,674.092 809.484,672.474 796.306,671.978 C 788.488,672.901 779.407,675.417 769.841,679.746 C 759.322,687.314 693.139,748.682 679.362,757.023 C 670.913,760.076 662.283,761.909 652.443,762.317 C 644.019,761.431 630.299,757.819 614.825,750.346 L 593.065,735.777" data-line="nan"  stroke-width="45.0"/>
    <path d="M 593.065,735.777 C 555.561,708.13 522.486,681.993 448.876,616.142 C 429.782,598.207 378.776,543.443 350.548,510.908 Q 318.697,470.705 287.111,426.873" data-line="nan"  stroke-width="45.0"/>
    <path d="M 287.111,426.873 C 272.348,402.955 267.873,393.027 264.076,381.016 C 262.357,370.229 262.332,361.75 264.264,351.626 C 266.54,344.413 271.2,334.595 280.941,320.971 C 329.214,270.462 345.324,252.532 349.342,246.259 C 354.49,235.303 357.914,218.569 357.945,210.25 C 356.773,202.084 355.264,196.559 351.464,187.936 Q 343.357,176.014 319.195,147.587" data-line="nan"  stroke-width="45.0"/>
    <path d="M 234.18,50.036 C 205.761,18.167 197.601,11.105 189.417,6.628 C 179.475,4.248 168.562,4.666 160.406,6.785 Q 154.113,9.425 143.475,16.772" data-line="nan"  stroke-width="45.0"/>
    <path d="M 49.188,108.201 C 34.124,123.851 25.064,137.095 17.922,153.322 C 12.597,174.335 10.095,195.781 10.068,217.467 C 13.282,249.741 18.118,276.071 25.857,306.647 C 36.501,340.052 48.725,371.807 63.131,403.651 C 77.784,431.885 95.65,462.488 122.034,503.521 L 142.461,532.69" data-line="nan"  stroke-width="45.0"/>
    <path d="M 970.238,57.334 L 16.051,1014.28" data-line="1.0"  stroke-width="45.0"/>
    <path d="M 977.624,801.469 L 855.979,694.041" data-line="3.0"  stroke-width="45.0"/>
    <path d="M 319.195,147.587 L 234.18,50.036" data-line="8.0"  stroke-width="45.0"/>
    <path d="M 142.461,532.69 L 325.84,738.481" data-line="9.0"  stroke-width="45.0"/>
    <path d="M 143.475,16.772 L 49.188,108.201" data-line="10.0"  stroke-width="45.0"/>
  </g>
</svg>