<svg xmlns="http://www.w3.org/2000/svg" width="1024" height="1024" viewBox="-51.5 -51.5 1127.0 1127.0">
  <g fill="none" stroke="black" stroke-width="45" stroke-linecap="round" stroke-linejoin="round">
    <path d="M 76.307,454.457 C 49.876,405.337 37.524,379.061 27.521,355.414 C 19.319,333.803 13.042,314.3 8.233,294.819 C 5.168,275.521 4.017,257.81 4.709,241.284 C 7.254,224.834 11.309,210.94 16.485,198.642 C 23.131,187.271 30.233,178.335 44.017,163.431" data-line="nan"  stroke-width="45.0"/>
    <path d="M 110.784,96.26 C 119.771,88.255 128.48,82.094 138.975,76.494 C 150.816,72.1 162.518,69.636 173.52,68.857 C 185.762,69.748 198.906,72.72 208.966,76.56 C 216.265,80.679 224.705,87.378 230.075,93.002 Q 239.467,106.111 263.934,146.191" data-line="nan"  stroke-width="45.0"/>
    <path d="M 796.803,251.549 C 816.587,275.733 830.769,296.149 843.786,317.8 C 855.098,340.131 865.059,363.988 873.857,390.793 Q 880.698,419.831 884.105,442.597" data-line="nan"  stroke-width="45.0"/>
    <path d="M 327.05,244.822 C 332.386,253.475 335.617,260.454 338.767,273.385 C 339.274,280.532 338.763,287.247 337.495,293.739 C 334.674,302.096 330.435,310.247 324.029,318.65 C 268.081,382.463 261.438,393.393 256.993,408.718 C 256.464,417.688 257.365,426.314 259.67,435.329 C 262.72,443.369 271.217,457.98 288.157,479.384" data-line="nan"  stroke-width="45.0"/>
    <path d="M 562.894,747.23 C 578.19,757.037 585.045,760.01 592.35,762.015 C 600.992,763.305 609.915,763.294 618.224,761.943 C 627.626,759.148 635.568,755.503 644.57,749.137 C 708.677,691.356 719.006,684.686 733.728,679.649 C 747.055,678.588 755.81,679.758 762.846,681.792 Q 773.493,687.175 793.801,700.188" data-line="nan"  stroke-width="45.0"/>
    <path d="M 901.725,769.663 C 924.127,785.58 933.284,793.919 940.406,801.84 C 946.023,809.82 950.42,817.763 953.634,826.163 C 956.185,836.801 957.107,846.696 956.689,855.498 C 955.286,864.13 951.569,876.557 947.111,886.285 Q 942.243,894.043 925.25,913.555" data-line="nan"  stroke-width="45.0"/>
    <path d="M 858.763,978.996 C 843.538,992.014 832.482,998.958 823.882,1003.196 C 814.468,1006.978 800.942,1010.892 789.824,1013.011 C 776.543,1014.364 754.33,1013.925 730.319,1010.111 Q 701.213,1002.186 664.471,988.985" data-line="nan"  stroke-width="45.0"/>
    <path d="M 664.471,988.985 C 626.782,972.786 591.164,955.078 551.393,932.616 C 510.408,906.691 469.592,878.376 429.889,848.317 C 388.203,814.123 349.935,780.395 303.728,737.129 C 266.226,699.699 224.841,655.477 191.256,616.833 C 159.071,576.866 128.643,535.714 100.346,493.752 L 76.307,454.457" data-line="nan"  stroke-width="45.0"/>
    <path d="M 618.4005097734757,142.2904221573085 A 350.23305356867706,350.23305356867706 0 0,1 796.6901710014981,251.6474379959627" data-line="0.0"  stroke-width="45.0"/>
    <path d="M 589.2314178872577,274.50244809549224 A 222.52875859119516,222.52875859119516 0 0,1 747.5828065669298,448.2652928589353" data-line="1.0"  stroke-width="45.0"/>
    <path d="M 646.5230666528058,9.789967603078253 A 487.5216650082053,487.5216650082053 0 0,1 1019.171919566944,430.40111380712045" data-line="4.0"  stroke-width="45.0"/>
    <path d="M 263.934,146.191 L 327.05,244.822" data-line="6.0"  stroke-width="45.0"/>
    <path d="M 44.017,163.431 L 110.784,96.26" data-line="7.0"  stroke-width="45.0"/>
    <path d="M 288.157,479.384 C 368.55300010130105,580.3915088421688 461.6248975376588,672.9557664110307 562.894,747.23" data-line="8.0"  stroke-width="45.0"/>
    <path d="M 793.801,700.188 L 901.725,769.663" data-line="10.0"  stroke-width="45.0"/>
    <path d="M 925.25,913.555 L 858.763,978.996" data-line="13.0"  stroke-width="45.0"/>
  </g>
</svg>