<svg xmlns="http://www.w3.org/2000/svg" width="1024" height="1024" viewBox="-51.5 -51.5 1127.0 1127.0">
  <g fill="none" stroke="black" stroke-width="45" stroke-linecap="round" stroke-linejoin="round">
    <path d="M 342.47,562.16 C 343.83,553.72 345.78,548.68 350.52,542.4 C 356.58,538.1 361.04,536.41 365.97,535.64 L 395.69,535.4" data-line="nan"  stroke-width="45.0"/>
    <path d="M 94.77,888.21 C 95.46,892.84 98.38,899.65 103.87,906.47 C 108.99,910.07 113.21,911.37 121.6,911.99 L 154.56,912.06" data-line="nan"  stroke-width="45.0"/>
    <path d="M 595.25,957.17 C 612.67,971.79 633.21,985.96 656.17,998.61 C 677.85,1007.93 701.52,1015.52 725.63,1020.68 C 751.33,1023.57 776.1,1023.79 800.52,1021.6 C 826.44,1016.67 852.0,1009.04 874.02,1000.1 C 895.94,988.65 916.82,974.98 934.04,961.26 C 953.88,942.4 969.93,923.78 983.72,904.36 C 995.49,884.11 1005.94,861.4 1014.26,837.04 C 1019.78,813.71 1022.89,791.66 1023.98,765.59 C 1022.54,740.94 1018.59,716.16 1011.79,690.44 C 1002.95,666.96 992.33,645.37 979.43,624.61 C 965.82,606.77 947.39,586.33 926.25,568.29 C 906.04,553.97 884.23,541.47 861.06,531.03 C 835.4,522.49 812.36,517.34 783.21,513.86 C 761.19,513.39 735.29,515.25 713.16,518.99 C 688.29,525.63 665.19,534.24 642.98,545.04 C 620.33,559.01 599.51,575.17 581.73,592.04 C 565.08,611.31 550.84,631.54 537.99,654.3 C 527.34,678.91 519.78,703.17 514.66,729.1 C 512.17,756.4 512.33,779.52 514.98,805.86 C 519.53,828.93 526.63,853.09 536.61,877.66 C 549.13,901.13 563.27,922.05 578.16,940.29 Q 586.68,949.47 595.25,957.17" data-line="nan"  stroke-width="45.0"/>
    <path d="M 0.0,416.71 L 467.76,0.0" data-line="0.0"  stroke-width="45.0"/>
    <path d="M 921.6,412.97 L 467.76,0.0" data-line="1.0"  stroke-width="45.0"/>
    <path d="M 355.96,912.0 L 482.0,912.03" data-line="4.0"  stroke-width="45.0"/>
    <path d="M 342.29,912.02 L 342.47,562.16" data-line="5.0"  stroke-width="45.0"/>
    <path d="M 831.09,455.73 L 830.94,398.72" data-line="6.0"  stroke-width="45.0"/>
    <path d="M 395.69,535.4 L 547.76,535.38" data-line="7.0"  stroke-width="45.0"/>
    <path d="M 94.67,394.52 L 94.77,888.21" data-line="8.0"  stroke-width="45.0"/>
    <path d="M 947.39,586.33 L 586.68,949.47" data-line="9.0"  stroke-width="45.0"/>
    <path d="M 154.56,912.06 L 355.96,912.0" data-line="10.0"  stroke-width="45.0"/>
  </g>
</svg>